<?xml version="1.0" encoding="UTF-8"?>
<svg id="Layer_2" data-name="Layer 2" xmlns="http://www.w3.org/2000/svg" xmlns:xlink="http://www.w3.org/1999/xlink" viewBox="0 0 983.03 880.62">
  <defs>
    <style>
      .cls-1 {
        fill: url(#linear-gradient-2);
      }

      .cls-2 {
        fill: url(#linear-gradient-4);
      }

      .cls-3 {
        fill: url(#linear-gradient-3);
      }

      .cls-4 {
        fill: url(#linear-gradient-5);
      }

      .cls-5 {
        fill: url(#linear-gradient-8);
      }

      .cls-6 {
        fill: #080f2b;
      }

      .cls-7 {
        fill: url(#linear-gradient-7);
      }

      .cls-8 {
        fill: url(#linear-gradient-9);
      }

      .cls-9 {
        fill: url(#linear-gradient-6);
      }

      .cls-10 {
        fill: url(#linear-gradient);
      }
    </style>
    <linearGradient id="linear-gradient" x1="305.16" y1="254.44" x2="1568.51" y2="535.18" gradientUnits="userSpaceOnUse">
      <stop offset="0" stop-color="#d5b47f"/>
      <stop offset="1" stop-color="#d4b37e"/>
    </linearGradient>
    <linearGradient id="linear-gradient-2" x1="302.84" y1="264.9" x2="1566.18" y2="545.64" xlink:href="#linear-gradient"/>
    <linearGradient id="linear-gradient-3" x1="-392.99" y1="475.66" x2="923.39" y2="768.19" xlink:href="#linear-gradient"/>
    <linearGradient id="linear-gradient-4" x1="-392.18" y1="471.99" x2="924.21" y2="764.52" xlink:href="#linear-gradient"/>
    <linearGradient id="linear-gradient-5" x1="-385.06" y1="439.97" x2="931.32" y2="732.5" xlink:href="#linear-gradient"/>
    <linearGradient id="linear-gradient-6" x1="-378.61" y1="410.95" x2="937.77" y2="703.48" xlink:href="#linear-gradient"/>
    <linearGradient id="linear-gradient-7" x1="-374.1" y1="390.64" x2="942.28" y2="683.17" xlink:href="#linear-gradient"/>
    <linearGradient id="linear-gradient-8" x1="-369.63" y1="370.53" x2="946.75" y2="663.06" xlink:href="#linear-gradient"/>
    <linearGradient id="linear-gradient-9" x1="-364.81" y1="348.83" x2="951.57" y2="641.36" xlink:href="#linear-gradient"/>
  </defs>
  <g id="Layer_1-2" data-name="Layer 1">
    <g>
      <rect class="cls-6" width="983.03" height="880.62"/>
      <g>
        <g>
          <path class="cls-10" d="M425.97,404.93l-8.8,31.76h158.87l-4.7-15.3h-135.03l4.57-16.46,4.11-14.78,27.57-99.22.58-2.09,3.14-11.29h0s7.33-26.38,7.33-26.38l29.95-107.79h-15.19l-22.25,80.36-16.94,61.19-4.13,14.91c-8.58,1.2-18.14.31-24.85-.69-.02,0-.05,0-.07,0-.25-.03-.5-.07-.75-.1-.06,0-.13-.02-.19-.03-.32-.05-.64-.09-.97-.15-.32-.05-.65-.1-.99-.16-.11-.02-.22-.03-.33-.06-.23-.04-.46-.08-.69-.12-.68-.12-1.38-.26-2.09-.41-.31-.06-.62-.13-.93-.2-.18-.04-.36-.08-.55-.12-.23-.05-.46-.1-.69-.16-.09-.02-.18-.04-.27-.06-.09-.02-.14-.03-.14-.03h0s-.01,0-.02,0c-.33-.08-.66-.16-.99-.25-.09-.02-.18-.04-.27-.07-.36-.09-.71-.19-1.07-.29-.26-.07-.53-.14-.8-.22-.54-.15-1.08-.31-1.62-.47-.27-.08-.55-.17-.82-.25-.28-.08-.55-.17-.83-.27-.56-.18-1.12-.37-1.68-.57-.28-.1-.56-.2-.84-.3-.29-.1-.57-.21-.85-.31-.57-.21-1.14-.43-1.72-.67-.29-.11-.58-.23-.87-.35-.29-.12-.58-.24-.87-.36-11.51-4.49-19.06-10-29.65-19.31-2.63-2.31-9.42-7.06-11.79-9.82-16.4-18.99-27.37-19.95-34.66-17.47-3.34,1.13-5.97,3.53-8.12,6.29,0,0-.01.01-.02.02-1.28,2.01-2.58,3.38-3.33,5.04,0,0,0,0,0,.02-3.53,6.08-2.57,10.89-.76,14.07,1,1.76,2.26,3.02,3.17,3.72.02.01.04.03.05.04.27.19.54.36.83.52,1.46.84,3.16,1.31,4.96,1.31.63,0,1.24-.06,1.84-.17l-11.9,28.45-14.78,35.34h-9.12c0,21.02,17.04,38.06,38.06,38.06s38.07-17.04,38.07-38.06h-9.59l-14.59-35.45-10.53-25.58-1.79-4.34h0c.65-.45,1.25-.97,1.77-1.56,1.62-1.78,2.6-4.15,2.6-6.75,0-4.12-2.48-7.66-6.02-9.21,10.93-7.42,23.26,12.24,26.91,16.02,35.28,36.57,70.4,40.18,85.8,39.7.19,0,.37-.01.56-.02.75-.03,1.45-.07,2.09-.11.16,0,.32-.02.47-.03.93-.07,1.74-.15,2.42-.23l-21.18,76.51-4.09,14.78ZM333.09,285.29l8.03,18.72,15.97,37.21h-47.76l15.82-37.24,7.94-18.69Z"/>
          <path class="cls-1" d="M421.55,297.55h0s.05.02.14.03c-.04-.01-.09-.02-.14-.03ZM679.66,341.22c-.45,0-.85-.27-1.02-.68l-14.5-34.66-11.19-26.75c-.31-.74.24-1.54,1.04-1.53.03,0,.06,0,.09,0,1.81,0,3.5-.47,4.96-1.31.29-.16.56-.34.83-.52.02-.01.03-.03.05-.04.91-.7,2.17-1.96,3.17-3.72,1.81-3.18,2.77-8-.76-14.07,0,0,0,0,0-.02-.75-1.66-2.05-3.02-3.33-5.04,0,0,0-.01-.02-.02-2.15-2.75-4.78-5.15-8.12-6.29-7.29-2.48-18.26-1.51-34.66,17.47-2.37,2.75-9.16,7.5-11.79,9.82-10.59,9.31-18.14,14.82-29.65,19.31-17.13,7.28-31.7,6.8-35.17,6.55-.47-.03-.86-.36-.99-.81l-7.59-27.93-17.39-64c-.3-1.09-1.84-1.09-2.13,0l-53.63,196.56c-.19.7.34,1.4,1.07,1.4h107.82c.77,0,1.3-.76,1.04-1.48l-4.57-12.57c-.16-.44-.57-.73-1.04-.73h-84.77c-.73,0-1.26-.69-1.07-1.4l35.51-129.79c.3-1.08,1.83-1.09,2.13,0l14.9,52.98c.23.82.92,1.43,1.77,1.55,8.11,1.17,50.18,4.72,92.5-39.14,3.44-3.57,14.6-21.26,25.03-17.03.82.33.93,1.44.21,1.94-2.63,1.81-4.35,4.85-4.35,8.28,0,2.6.98,4.96,2.6,6.75.53.58,1.12,1.11,1.77,1.55h0s-1.79,4.35-1.79,4.35l-10.53,25.58-14.31,34.77c-.17.41-.57.68-1.02.68h-7.72c-.62,0-1.12.52-1.11,1.14.6,20.49,17.41,36.92,38.05,36.92s37.44-16.43,38.05-36.92c.02-.62-.48-1.14-1.11-1.14h-7.26ZM627.64,341.22c-.79,0-1.33-.81-1.02-1.54l15.31-35.67,7.01-16.34c.38-.89,1.65-.89,2.03,0l6.93,16.31,15.17,35.7c.31.73-.23,1.54-1.02,1.54h-44.41Z"/>
        </g>
        <g>
          <path class="cls-3" d="M124.08,517.21v155.75h25.05c26.79,0,46.13-10.42,46.13-63.24h.74v65.72h-100.69v-.74c4.46,0,11.41-.25,11.41-14.63v-142.86c0-14.38-6.94-14.63-11.41-14.63v-.74h40.18v.74c-4.46,0-11.41.25-11.41,14.63Z"/>
          <path class="cls-2" d="M200.96,641.96c0-24.31,20.59-36.21,47.87-49.35,10.17-4.71,20.83-10.42,28.27-16.12-.99-15.87-8.18-23.81-23.56-23.81-26.29,0-36.95,24.06-30.26,36.46l-.25.25-10.17-11.16c0-12.65,11.16-28.03,40.67-28.03,31.25,0,41.17,11.66,41.17,31v78.87c0,14.38,6.94,14.63,11.41,14.63v.74h-28.77v-16.37c-14.38,30.01-76.39,27.53-76.39-17.11ZM250.07,594.84c-18.85,8.93-30.51,21.08-30.51,47.12,0,45.14,52.83,39.93,57.79,8.93v-71.43c-7.44,5.46-17.86,10.66-27.28,15.38Z"/>
          <path class="cls-4" d="M340.6,675.44v-.74c4.46,0,10.17-2.23,5.95-14.38l-33.73-95.49c-3.97-7.69-9.67-7.69-13.89-7.69v-.74l10.17-1.74,17.36-3.22,42.16,120.29,15.13-48.36-15.87-57.79c-3.72-8.43-8.93-8.43-13.14-8.43v-.74l10.17-1.74,17.36-3.22,32.24,119.54,25.79-91.77c6.94-23.56,2.23-23.31-4.71-23.31v-.74l12.4-3.22,2.48-.5-34.72,124.01h-29.27v-.74c3.97,0,10.17-1.74,8.18-11.41l-.99-2.98v-.25l-8.93-32.74-14.88,48.11h-29.27Z"/>
          <path class="cls-9" d="M496.6,675.44v-.74c4.46,0,10.17-2.23,5.95-14.63l-32.74-93.25c-3.72-9.67-9.92-9.67-14.38-9.67v-.74l10.17-1.74,17.36-3.22,42.16,120.53,32.49-95.49c5.95-20.83,2.73-20.58-3.97-20.58v-.74l12.4-3.22,2.48-.5-42.16,124.01h-29.76Z"/>
          <path class="cls-7" d="M631.27,677.42c-38.44,0-62-28.52-62-63.24s23.56-63.49,62-63.49c19.1,0,35.47,7.19,46.38,19.1l-7.69,12.4-52.83,88.05c6.2,2.23,13.39,3.22,21.83,3.22,10.91,0,30.01-7.19,33.48-26.04h.99c-3.47,18.85-18.6,30.01-42.16,30.01ZM616.14,669.98c14.63-28.77,56.05-102.43,28.52-115.08-3.97-1.24-8.43-1.74-13.39-1.74-30.01,0-44.64,23.56-44.64,61.01,0,28.52,8.68,48.11,29.51,55.8Z"/>
          <path class="cls-5" d="M711.38,631.54c3.72-41.67,16.12-81.1,42.91-81.1,14.14,0,24.31,3.97,28.52,26.29l-15.62,29.02h-.74c6.45-16.62,1.98-52.83-15.63-52.83-22.32,0-37.45,49.11-39.43,96.23v10.91c0,14.38,6.94,14.63,11.41,14.63v.74h-40.18v-.74c4.46,0,11.41-.25,11.41-14.63v-88.29c0-14.38-6.94-14.63-11.41-14.63v-.74l28.77-4.96v80.11Z"/>
          <path class="cls-8" d="M782.57,641.96c0-24.31,20.59-36.21,47.87-49.35,10.17-4.71,20.83-10.42,28.27-16.12-.99-15.87-8.18-23.81-23.56-23.81-26.29,0-36.95,24.06-30.26,36.46l-.25.25-10.17-11.16c0-12.65,11.16-28.03,40.67-28.03,31.25,0,41.17,11.66,41.17,31v78.87c0,14.38,6.94,14.63,11.41,14.63v.74h-28.77v-16.37c-14.38,30.01-76.39,27.53-76.39-17.11ZM831.67,594.84c-18.85,8.93-30.51,21.08-30.51,47.12,0,45.14,52.83,39.93,57.79,8.93v-71.43c-7.44,5.46-17.86,10.66-27.28,15.38Z"/>
        </g>
      </g>
    </g>
  </g>
</svg>