<?xml version="1.0" encoding="UTF-8"?>
<svg id="Layer_2" data-name="Layer 2" xmlns="http://www.w3.org/2000/svg" xmlns:xlink="http://www.w3.org/1999/xlink" viewBox="0 0 983.03 352.23">
  <defs>
    <style>
      .cls-1 {
        fill: url(#linear-gradient-2);
      }

      .cls-2 {
        fill: url(#linear-gradient-4);
      }

      .cls-3 {
        fill: url(#linear-gradient-3);
      }

      .cls-4 {
        fill: url(#linear-gradient-5);
      }

      .cls-5 {
        fill: url(#linear-gradient-8);
      }

      .cls-6 {
        fill: #080f2b;
      }

      .cls-7 {
        fill: url(#linear-gradient-7);
      }

      .cls-8 {
        fill: url(#linear-gradient-9);
      }

      .cls-9 {
        fill: url(#linear-gradient-6);
      }

      .cls-10 {
        fill: url(#linear-gradient);
      }
    </style>
    <linearGradient id="linear-gradient" x1="61.26" y1="151.16" x2="947.03" y2="347.99" gradientUnits="userSpaceOnUse">
      <stop offset="0" stop-color="#d5b47f"/>
      <stop offset="1" stop-color="#d4b37e"/>
    </linearGradient>
    <linearGradient id="linear-gradient-2" x1="59.63" y1="158.49" x2="945.4" y2="355.33" xlink:href="#linear-gradient"/>
    <linearGradient id="linear-gradient-3" x1="67.13" y1="124.73" x2="952.9" y2="321.57" xlink:href="#linear-gradient"/>
    <linearGradient id="linear-gradient-4" x1="67.68" y1="122.27" x2="953.45" y2="319.1" xlink:href="#linear-gradient"/>
    <linearGradient id="linear-gradient-5" x1="72.47" y1="100.72" x2="958.23" y2="297.56" xlink:href="#linear-gradient"/>
    <linearGradient id="linear-gradient-6" x1="76.81" y1="81.19" x2="962.57" y2="278.03" xlink:href="#linear-gradient"/>
    <linearGradient id="linear-gradient-7" x1="79.84" y1="67.52" x2="965.61" y2="264.36" xlink:href="#linear-gradient"/>
    <linearGradient id="linear-gradient-8" x1="82.85" y1="54" x2="968.62" y2="250.83" xlink:href="#linear-gradient"/>
    <linearGradient id="linear-gradient-9" x1="86.09" y1="39.39" x2="971.86" y2="236.23" xlink:href="#linear-gradient"/>
  </defs>
  <g id="Layer_1-2" data-name="Layer 1">
    <rect class="cls-6" width="983.03" height="352.23"/>
    <g>
      <g>
        <path class="cls-10" d="M145.96,256.67l-6.17,22.27h111.39l-3.3-10.73h-94.67l3.21-11.54,2.88-10.36,19.33-69.56.41-1.46,2.2-7.92h0s5.14-18.5,5.14-18.5l21-75.58h-10.65l-15.6,56.35-11.88,42.9-2.9,10.46c-6.02.84-12.72.22-17.42-.48-.02,0-.03,0-.05,0-.17-.02-.35-.05-.53-.07-.04,0-.09-.01-.14-.02-.22-.03-.45-.07-.68-.1-.23-.04-.46-.07-.69-.11-.08-.01-.15-.02-.23-.04-.16-.03-.32-.06-.48-.09-.48-.09-.97-.18-1.46-.29-.22-.04-.43-.09-.65-.14-.13-.03-.26-.06-.38-.09-.16-.04-.32-.07-.48-.11-.06-.01-.13-.03-.19-.04-.06-.01-.1-.02-.1-.02h0s0,0-.01,0c-.23-.06-.46-.11-.69-.17-.06-.01-.13-.03-.19-.05-.25-.06-.5-.13-.75-.2-.19-.05-.37-.1-.56-.16-.38-.1-.76-.22-1.14-.33-.19-.06-.38-.12-.57-.18-.19-.06-.39-.12-.58-.19-.39-.13-.78-.26-1.18-.4-.2-.07-.39-.14-.59-.21-.2-.07-.4-.15-.6-.22-.4-.15-.8-.3-1.21-.47-.2-.08-.41-.16-.61-.25-.2-.08-.41-.17-.61-.26-8.07-3.15-13.37-7.01-20.79-13.54-1.84-1.62-6.6-4.95-8.27-6.88-11.5-13.31-19.19-13.99-24.3-12.25-2.34.8-4.19,2.48-5.7,4.41,0,0,0,0-.01.01-.9,1.41-1.81,2.37-2.34,3.53,0,0,0,0,0,.01-2.48,4.26-1.8,7.64-.53,9.87.7,1.23,1.58,2.12,2.22,2.61.01,0,.03.02.04.03.19.13.38.25.58.37,1.03.59,2.21.92,3.48.92.44,0,.87-.04,1.29-.12l-8.34,19.95-10.36,24.78h-6.39c0,14.74,11.95,26.69,26.69,26.69s26.69-11.95,26.69-26.69h-6.72l-10.23-24.86-7.38-17.94-1.25-3.04h0c.46-.32.87-.68,1.24-1.09,1.13-1.25,1.82-2.91,1.82-4.73,0-2.89-1.74-5.37-4.22-6.46,7.67-5.2,16.31,8.58,18.87,11.23,24.74,25.64,49.36,28.17,60.16,27.83.13,0,.26,0,.39-.02.52-.02,1.02-.05,1.47-.08.11,0,.22-.02.33-.02.65-.05,1.22-.11,1.7-.16l-14.85,53.64-2.87,10.36ZM80.84,172.79l5.63,13.12,11.19,26.09h-33.48l11.09-26.11,5.57-13.1Z"/>
        <path class="cls-1" d="M142.86,181.39h0s.03.01.1.02c-.03,0-.06-.02-.1-.02ZM323.83,212c-.31,0-.59-.19-.71-.48l-10.16-24.3-7.84-18.76c-.22-.52.17-1.08.73-1.07.02,0,.04,0,.06,0,1.27,0,2.45-.33,3.48-.92.2-.11.39-.24.58-.37.01,0,.02-.02.04-.03.64-.49,1.52-1.37,2.22-2.61,1.27-2.23,1.94-5.61-.53-9.87,0,0,0,0,0-.01-.53-1.16-1.44-2.12-2.34-3.53,0,0,0,0-.01-.01-1.51-1.93-3.35-3.61-5.7-4.41-5.11-1.74-12.8-1.06-24.3,12.25-1.66,1.93-6.42,5.26-8.27,6.88-7.42,6.53-12.72,10.39-20.79,13.54-12.01,5.11-22.23,4.77-24.66,4.59-.33-.02-.61-.25-.69-.57l-5.32-19.58-12.19-44.87c-.21-.76-1.29-.76-1.49,0l-37.6,137.81c-.13.49.24.98.75.98h75.59c.54,0,.91-.53.73-1.04l-3.2-8.81c-.11-.31-.4-.51-.73-.51h-59.44c-.51,0-.88-.49-.75-.98l24.9-91c.21-.76,1.28-.76,1.49,0l10.45,37.15c.16.58.65,1,1.24,1.09,5.68.82,35.18,3.31,64.85-27.44,2.41-2.5,10.24-14.91,17.55-11.94.57.23.66,1.01.15,1.36-1.84,1.27-3.05,3.4-3.05,5.81,0,1.82.69,3.48,1.82,4.73.37.41.79.78,1.24,1.09h0s-1.25,3.05-1.25,3.05l-7.38,17.94-10.03,24.38c-.12.29-.4.48-.72.48h-5.42c-.44,0-.79.36-.78.8.42,14.37,12.21,25.89,26.68,25.89s26.25-11.52,26.68-25.89c.01-.44-.34-.8-.78-.8h-5.09ZM287.36,212c-.56,0-.93-.57-.71-1.08l10.73-25.01,4.91-11.45c.27-.63,1.16-.63,1.42,0l4.86,11.43,10.63,25.03c.22.51-.16,1.08-.71,1.08h-31.14Z"/>
      </g>
      <g>
        <path class="cls-3" d="M415.05,152.69v104.8h16.86c18.02,0,31.04-7.01,31.04-42.56h.5v44.22h-67.75v-.5c3,0,7.68-.17,7.68-9.85v-96.13c0-9.68-4.67-9.85-7.68-9.85v-.5h27.04v.5c-3,0-7.68.17-7.68,9.85Z"/>
        <path class="cls-2" d="M466.79,236.63c0-16.35,13.85-24.36,32.21-33.21,6.84-3.17,14.02-7.01,19.02-10.85-.67-10.68-5.51-16.02-15.85-16.02-17.69,0-24.87,16.19-20.36,24.53l-.17.17-6.84-7.51c0-8.51,7.51-18.86,27.37-18.86,21.03,0,27.7,7.84,27.7,20.86v53.07c0,9.68,4.67,9.85,7.68,9.85v.5h-19.36v-11.01c-9.68,20.19-51.4,18.52-51.4-11.52ZM499.83,204.92c-12.68,6.01-20.53,14.18-20.53,31.71,0,30.37,35.55,26.87,38.88,6.01v-48.06c-5.01,3.67-12.02,7.18-18.36,10.35Z"/>
        <path class="cls-4" d="M560.75,259.16v-.5c3,0,6.84-1.5,4.01-9.68l-22.7-64.25c-2.67-5.17-6.51-5.17-9.35-5.17v-.5l6.84-1.17,11.68-2.17,28.37,80.94,10.18-32.54-10.68-38.88c-2.5-5.67-6.01-5.67-8.85-5.67v-.5l6.84-1.17,11.68-2.17,21.7,80.44,17.36-61.75c4.67-15.85,1.5-15.69-3.17-15.69v-.5l8.34-2.17,1.67-.33-23.36,83.44h-19.69v-.5c2.67,0,6.84-1.17,5.51-7.68l-.67-2v-.17l-6.01-22.03-10.01,32.38h-19.69Z"/>
        <path class="cls-9" d="M665.72,259.16v-.5c3,0,6.84-1.5,4.01-9.85l-22.03-62.75c-2.5-6.51-6.68-6.51-9.68-6.51v-.5l6.84-1.17,11.68-2.17,28.37,81.11,21.86-64.25c4.01-14.02,1.84-13.85-2.67-13.85v-.5l8.34-2.17,1.67-.33-28.37,83.44h-20.03Z"/>
        <path class="cls-7" d="M756.34,260.5c-25.87,0-41.72-19.19-41.72-42.56s15.85-42.72,41.72-42.72c12.85,0,23.86,4.84,31.21,12.85l-5.17,8.34-35.55,59.24c4.17,1.5,9.01,2.17,14.69,2.17,7.34,0,20.19-4.84,22.53-17.52h.67c-2.34,12.68-12.52,20.19-28.37,20.19ZM746.16,255.49c9.85-19.36,37.72-68.92,19.19-77.43-2.67-.83-5.67-1.17-9.01-1.17-20.19,0-30.04,15.85-30.04,41.05,0,19.19,5.84,32.38,19.86,37.55Z"/>
        <path class="cls-5" d="M810.24,229.62c2.5-28.04,10.85-54.57,28.87-54.57,9.51,0,16.35,2.67,19.19,17.69l-10.51,19.53h-.5c4.34-11.18,1.33-35.55-10.51-35.55-15.02,0-25.2,33.04-26.53,64.75v7.34c0,9.68,4.67,9.85,7.68,9.85v.5h-27.04v-.5c3,0,7.68-.17,7.68-9.85v-59.41c0-9.68-4.67-9.85-7.68-9.85v-.5l19.36-3.34v53.9Z"/>
        <path class="cls-8" d="M858.14,236.63c0-16.35,13.85-24.36,32.21-33.21,6.84-3.17,14.02-7.01,19.02-10.85-.67-10.68-5.51-16.02-15.85-16.02-17.69,0-24.87,16.19-20.36,24.53l-.17.17-6.84-7.51c0-8.51,7.51-18.86,27.37-18.86,21.03,0,27.7,7.84,27.7,20.86v53.07c0,9.68,4.67,9.85,7.68,9.85v.5h-19.36v-11.01c-9.68,20.19-51.4,18.52-51.4-11.52ZM891.18,204.92c-12.68,6.01-20.53,14.18-20.53,31.71,0,30.37,35.55,26.87,38.88,6.01v-48.06c-5.01,3.67-12.02,7.18-18.36,10.35Z"/>
      </g>
    </g>
  </g>
</svg>